# File created by Blade
# Date/Time:  Tue Apr 07 20:29:43 2015
#---------------------------------------------------------
:version 1.10
:name HOM
:units
  mass 1.0
  length 1.000000
  angle deg
:documentation
     Acclaim Skeleton File
:root
   axis xyz
   order TX TY TZ RX RY RZ
   position 0.000000 0.000000 0.000000
   orientation 0 0 0
:bonedata
   begin
      id 1
      name Spine_dum
      direction 0.000000 1.000000 0.000000
      length 4.885285
      axis 0.0 0.0 0.0 xyz
   end
   begin
      id 2
      name LeftUpLeg_dum
      direction 1.000000 0.000000 0.000000
      length 2.672193
      axis 0.0 0.0 0.0 xyz
   end
   begin
      id 3
      name RightUpLeg_dum
      direction -1.000000 0.000000 0.000000
      length 2.672193
      axis 0.0 0.0 0.0 xyz
   end
   begin
      id 4
      name Spine
      direction 0.000000 1.000000 0.000000
      length 0.000000
      axis 0.0 0.0 0.0 xyz
      dof rx ry rz
   end
   begin
      id 5
      name Spine_dum1
      direction 0.000000 1.000000 0.000000
      length 16.494159
      axis 0.0 0.0 0.0 xyz
   end
   begin
      id 6
      name Spine_dum2
      direction 0.000000 1.000000 0.000000
      length 10.663448
      axis 0.0 0.0 0.0 xyz
   end
   begin
      id 7
      name Spine_dum3
      direction 0.000000 1.000000 0.000000
      length 10.663448
      axis 0.0 0.0 0.0 xyz
   end
   begin
      id 8
      name Head
      direction 0.000000 1.000000 0.000000
      length 4.527550
      axis 0.0 0.0 0.0 xyz
      dof rx ry rz
   end
   begin
      id 9
      name LeftShoulder
      direction 1.000000 0.000000 0.000000
      length 7.531907
      axis 0.0 0.0 -90.0 xyz
      dof rx ry rz
   end
   begin
      id 10
      name LeftArm
      direction 1.000000 0.000000 0.000000
      length 10.229199
      axis 0.0 0.0 -90.0 xyz
      dof rx ry rz
   end
   begin
      id 11
      name LeftForeArm
      direction 1.000000 0.000000 0.000000
      length 8.673495
      axis 0.0 0.0 -90.0 xyz
      dof ry rz rx
   end
   begin
      id 12
      name LeftHand
      direction 0.000000 0.000000 0.000000
      length 0.000000
      axis 0.0 0.0 -90.0 xyz
      dof rx ry rz
   end
   begin
      id 13
      name LeftHand_dum1
      direction 0.000000 0.000000 0.000000
      length 0.000000
      axis 0.0 0.0 -90.0 xyz
   end
   begin
      id 14
      name LeftHand_dum2
      direction 1.000000 0.000000 0.000000
      length 3.937000
      axis 0.0 0.0 -90.0 xyz
   end
   begin
      id 15
      name LeftHandThumb1
      direction 0.000000 0.000000 1.000000
      length 3.937000
      axis 0.0 0.0 -90.0 xyz
      dof rx rz ry
   end
   begin
      id 16
      name RightShoulder
      direction -1.000000 0.000000 0.000000
      length 7.531907
      axis 0.0 0.0 90.0 xyz
      dof rx ry rz
   end
   begin
      id 17
      name RightArm
      direction -1.000000 0.000000 0.000000
      length 10.229199
      axis 0.0 0.0 90.0 xyz
      dof rx ry rz
   end
   begin
      id 18
      name RightForeArm
      direction -1.000000 0.000000 0.000000
      length 8.673495
      axis 0.0 0.0 90.0 xyz
      dof ry rz rx
   end
   begin
      id 19
      name RightHand
      direction 0.000000 0.000000 0.000000
      length 0.000000
      axis 0.0 0.0 90.0 xyz
      dof rx ry rz
   end
   begin
      id 20
      name RightHand_dum1
      direction 0.000000 0.000000 0.000000
      length 0.000000
      axis 0.0 0.0 90.0 xyz
   end
   begin
      id 21
      name RightHand_dum2
      direction -1.000000 0.000000 0.000000
      length 3.937000
      axis 0.0 0.0 90.0 xyz
   end
   begin
      id 22
      name RightHandThumb1
      direction 0.000000 0.000000 1.000000
      length 3.937000
      axis 0.0 0.0 90.0 xyz
      dof rx rz ry
   end
   begin
      id 23
      name LeftUpLeg
      direction 0.000000 -1.000000 0.000000
      length 16.263388
      axis 0.0 0.0 0.0 xyz
      dof rx ry rz
   end
   begin
      id 24
      name LeftLeg
      direction 0.000000 -1.000000 0.000000
      length 14.328163
      axis 0.0 0.0 0.0 xyz
      dof rx ry rz
   end
   begin
      id 25
      name LeftFoot
      direction 0.000000 -0.258819 0.965926
      length 5.031290
      axis 15.0 0.0 0.0 xyz
      dof rx ry rz
   end
   begin
      id 26
      name LeftToeBase
      direction 0.000000 0.000000 1.000000
      length 2.952750
      axis 0.0 0.0 0.0 xyz
      dof rx ry rz
   end
   begin
      id 27
      name RightUpLeg
      direction 0.000000 -1.000000 0.000000
      length 16.263388
      axis 0.0 0.0 0.0 xyz
      dof rx ry rz
   end
   begin
      id 28
      name RightLeg
      direction 0.000000 -1.000000 0.000000
      length 14.328163
      axis 0.0 0.0 0.0 xyz
      dof rx ry rz
   end
   begin
      id 29
      name RightFoot
      direction 0.000000 -0.258819 0.965926
      length 5.031290
      axis 15.0 0.0 0.0 xyz
      dof rx ry rz
   end
   begin
      id 30
      name RightToeBase
      direction 0.000000 0.000000 1.000000
      length 2.952750
      axis 0.0 0.0 0.0 xyz
      dof rx ry rz
   end
:hierarchy
   begin
      root Spine_dum LeftUpLeg_dum RightUpLeg_dum
      Spine_dum Spine
      LeftUpLeg_dum LeftUpLeg
      RightUpLeg_dum RightUpLeg
      Spine Spine_dum1 Spine_dum2 Spine_dum3
      Spine_dum1 Head
      Spine_dum2 LeftShoulder
      Spine_dum3 RightShoulder
      LeftShoulder LeftArm
      LeftArm LeftForeArm
      LeftForeArm LeftHand
      LeftHand LeftHand_dum1 LeftHand_dum2
      LeftHand_dum1 LeftHandThumb1
      RightShoulder RightArm
      RightArm RightForeArm
      RightForeArm RightHand
      RightHand RightHand_dum1 RightHand_dum2
      RightHand_dum1 RightHandThumb1
      LeftUpLeg LeftLeg
      LeftLeg LeftFoot
      LeftFoot LeftToeBase
      RightUpLeg RightLeg
      RightLeg RightFoot
      RightFoot RightToeBase
   end

# File created by Blade
# Date/Time:  Tue Apr 07 20:29:34 2015
# Frame Rate: 120.000 fps
#------------------------------------------------------
:FULLY-SPECIFIED
:DEGREES
1
root 0.955451 32.733647 -2.950997 6.621843 2.138453 0.090048
Spine -12.058728 -6.735302 -0.756690
Head 19.286531 0.786365 -1.396315
LeftShoulder -19.067319 39.454213 21.503899
LeftArm 55.105003 -54.381965 -55.258950
LeftForeArm 8.445482 0.000000 -2.232555
LeftHand 3.409211 0.000000 2.178563
LeftHandThumb1 -26.253704 0.000000 33.147579
RightShoulder -7.922017 5.681954 -31.493262
RightArm 12.201456 14.740579 40.067963
RightForeArm -9.364221 -0.000000 -0.580730
RightHand 2.099829 -0.000000 0.926079
RightHandThumb1 -24.326973 -0.000000 -32.862282
LeftUpLeg -1.301724 -3.590153 0.848841
LeftLeg -3.018606 -0.000000 0.000000
LeftFoot -5.319860 10.279232 -13.963792
LeftToeBase -7.585927 -0.000000 0.000000
RightUpLeg 0.206717 -1.818176 0.217440
RightLeg -3.729044 -0.000000 0.000000
RightFoot -7.068144 -7.983065 4.824373
RightToeBase -0.127168 -0.000000 0.000000
2
root 0.954840 32.733659 -2.944497 6.625252 2.144202 0.091876
Spine -12.069272 -6.750919 -0.755627
Head 19.281914 0.781731 -1.396996
LeftShoulder -19.060951 39.420174 21.511917
LeftArm 55.018768 -54.370718 -55.164809
LeftForeArm 8.468421 -0.000000 -2.227119
LeftHand 3.370012 -0.000000 2.179087
LeftHandThumb1 -26.253704 0.000000 33.147579
RightShoulder -7.919520 5.688727 -31.484947
RightArm 12.186090 14.741304 40.027911
RightForeArm -9.393568 -0.000000 -0.584660
RightHand 2.105423 -0.000000 0.929428
RightHandThumb1 -24.326973 -0.000000 -32.862282
LeftUpLeg -1.294361 -3.566577 0.847517
LeftLeg -3.020706 -0.000000 0.000000
LeftFoot -5.307025 10.250372 -13.951866
LeftToeBase -7.632868 -0.000000 0.000000
RightUpLeg 0.207891 -1.836298 0.218666
RightLeg -3.713045 -0.000000 0.000000
RightFoot -7.078903 -7.972124 4.803389
RightToeBase -0.172235 -0.000000 0.000000
3
root 0.954431 32.733463 -2.938409 6.637906 2.146392 0.094474
Spine -12.087518 -6.762081 -0.754880
Head 19.278359 0.776931 -1.399400
LeftShoulder -19.077704 39.431459 21.494878
LeftArm 55.077143 -54.412311 -55.197072
LeftForeArm 8.498649 -0.000000 -2.243576
LeftHand 3.340738 0.000000 2.129689
LeftHandThumb1 -26.253704 0.000000 33.147579
RightShoulder -7.920019 5.673866 -31.483800
RightArm 12.177792 14.724323 39.997887
RightForeArm -9.362092 -0.000000 -0.580099
RightHand 2.131403 -0.000000 0.915543
RightHandThumb1 -24.326973 -0.000000 -32.862282
LeftUpLeg -1.292237 -3.566312 0.845828
LeftLeg -3.028193 -0.000000 0.000000
LeftFoot -5.303846 10.258762 -13.941147
LeftToeBase -7.633576 -0.000000 0.000000
RightUpLeg 0.215049 -1.836994 0.218051
RightLeg -3.732134 -0.000000 0.000000
RightFoot -7.075468 -7.975343 4.830574
RightToeBase -0.161963 -0.000000 0.000000
4
root 0.953403 32.733562 -2.932208 6.648104 2.140191 0.097584
Spine -12.106692 -6.767326 -0.753636
Head 19.283282 0.769674 -1.403629
LeftShoulder -19.094810 39.460720 21.473238
LeftArm 55.155911 -54.460115 -55.261228
LeftForeArm 8.501543 0.000000 -2.245067
LeftHand 3.348588 -0.000000 2.140052
LeftHandThumb1 -26.253704 0.000000 33.147579
RightShoulder -7.918097 5.668553 -31.485346
RightArm 12.165252 14.734887 39.977164
RightForeArm -9.362154 0.000000 -0.564226
RightHand 2.155601 0.000000 0.901214
RightHandThumb1 -24.326973 -0.000000 -32.862282
LeftUpLeg -1.285352 -3.553749 0.844914
LeftLeg -3.040440 -0.000000 0.000000
LeftFoot -5.300975 10.248458 -13.968913
LeftToeBase -7.653988 -0.000000 0.000000
RightUpLeg 0.216899 -1.841400 0.222565
RightLeg -3.733547 -0.000000 0.000000
RightFoot -7.082038 -7.998551 4.787723
RightToeBase -0.185367 -0.000000 0.000000
5
root 0.952592 32.733722 -2.926457 6.662951 2.140746 0.095596
Spine -12.133216 -6.775616 -0.747044
Head 19.301583 0.779835 -1.406455
LeftShoulder -19.075974 39.442487 21.491482
LeftArm 55.041559 -54.424160 -55.140890
LeftForeArm 8.430620 -0.000000 -2.247785
LeftHand 3.264635 -0.000000 2.091233
LeftHandThumb1 -26.253704 0.000000 33.147579
RightShoulder -7.919151 5.657021 -31.480068
RightArm 12.164499 14.752587 39.954279
RightForeArm -9.364058 0.000000 -0.553260
RightHand 2.075550 -0.000000 0.838411
RightHandThumb1 -24.326973 -0.000000 -32.862282
LeftUpLeg -1.285999 -3.559080 0.849601
LeftLeg -3.048368 -0.000000 0.000000
LeftFoot -5.305797 10.257227 -13.982027
LeftToeBase -7.606608 -0.000000 0.000000
RightUpLeg 0.211504 -1.824324 0.220694
RightLeg -3.734201 -0.000000 0.000000
RightFoot -7.076310 -7.988507 4.817316
RightToeBase -0.228137 -0.000000 0.000000
6
root 0.952064 32.733400 -2.920039 6.670138 2.140297 0.095005
Spine -12.146529 -6.777107 -0.743446
Head 19.306460 0.776198 -1.413750
LeftShoulder -19.076454 39.418468 21.500687
LeftArm 55.073441 -54.441782 -55.187262
LeftForeArm 8.466841 -0.000000 -2.232617
LeftHand 3.270225 -0.000000 2.052432
LeftHandThumb1 -26.253704 0.000000 33.147579
RightShoulder -7.936394 5.653965 -31.488476
RightArm 12.171282 14.758602 39.950554
RightForeArm -9.329461 -0.000000 -0.557332
RightHand 2.091318 -0.000000 0.812884
RightHandThumb1 -24.326973 -0.000000 -32.862282
LeftUpLeg -1.276652 -3.564379 0.851911
LeftLeg -3.056813 -0.000000 0.000000
LeftFoot -5.307760 10.246387 -13.983161
LeftToeBase -7.632468 -0.000000 0.000000
RightUpLeg 0.221794 -1.823226 0.221798
RightLeg -3.743626 -0.000000 0.000000
RightFoot -7.078269 -7.979084 4.841157
RightToeBase -0.226365 -0.000000 0.000000
7
root 0.950312 32.733150 -2.914420 6.684854 2.132770 0.094517
Spine -12.174053 -6.779780 -0.737342
Head 19.330328 0.782788 -1.417883
LeftShoulder -19.082812 39.431491 21.493893
LeftArm 55.163029 -54.499549 -55.281585
LeftForeArm 8.422820 -0.000000 -2.242854
LeftHand 3.271382 -0.000000 2.056503
LeftHandThumb1 -26.253704 0.000000 33.147579
RightShoulder -7.940431 5.655668 -31.498267
RightArm 12.173840 14.775973 39.952374
RightForeArm -9.339372 -0.000000 -0.553305
RightHand 2.096445 -0.000000 0.822899
RightHandThumb1 -24.326973 -0.000000 -32.862282
LeftUpLeg -1.283731 -3.536228 0.853940
LeftLeg -3.048686 -0.000000 0.000000
LeftFoot -5.314804 10.230973 -13.964262
LeftToeBase -7.624111 -0.000000 0.000000
RightUpLeg 0.215400 -1.824425 0.224780
RightLeg -3.741001 -0.000000 0.000000
RightFoot -7.087846 -7.971920 4.842161
RightToeBase -0.224565 -0.000000 0.000000
8
root 0.949490 32.732514 -2.908641 6.693652 2.142331 0.098696
Spine -12.189502 -6.797383 -0.739650
Head 19.348175 0.786368 -1.410765
LeftShoulder -19.099545 39.440590 21.496498
LeftArm 55.209201 -54.496843 -55.322565
LeftForeArm 8.446347 0.000000 -2.240888
LeftHand 3.248593 -0.000000 2.122084
LeftHandThumb1 -26.253704 0.000000 33.147579
RightShoulder -7.935983 5.734783 -31.508659
RightArm 12.104764 14.728086 39.923375
RightForeArm -9.308407 -0.000000 -0.544949
RightHand 2.108064 -0.000000 0.831994
RightHandThumb1 -24.326973 -0.000000 -32.862282
LeftUpLeg -1.278428 -3.556285 0.852241
LeftLeg -3.059577 -0.000000 0.000000
LeftFoot -5.314134 10.253153 -13.963463
LeftToeBase -7.697045 -0.000000 0.000000
RightUpLeg 0.225783 -1.847532 0.230910
RightLeg -3.756901 -0.000000 0.000000
RightFoot -7.088628 -7.997671 4.790157
RightToeBase -0.188102 -0.000000 0.000000
9
root 0.948329 32.732022 -2.903515 6.701630 2.145097 0.102341
Spine -12.206120 -6.820613 -0.735548
Head 19.375202 0.800480 -1.415957
LeftShoulder -19.109163 39.445471 21.489010
LeftArm 55.202839 -54.502769 -55.309485
LeftForeArm 8.423976 -0.000000 -2.239360
LeftHand 3.254897 -0.000000 2.125133
LeftHandThumb1 -26.253704 0.000000 33.147579
RightShoulder -7.923438 5.753620 -31.508757
RightArm 12.097700 14.738755 39.912775
RightForeArm -9.321484 -0.000000 -0.542259
RightHand 2.109875 -0.000000 0.819426
RightHandThumb1 -24.326973 -0.000000 -32.862282
LeftUpLeg -1.277381 -3.567332 0.850101
LeftLeg -3.055627 -0.000000 0.000000
LeftFoot -5.324619 10.260965 -13.956864
LeftToeBase -7.643178 -0.000000 0.000000
RightUpLeg 0.226257 -1.855329 0.230511
RightLeg -3.754063 -0.000000 0.000000
RightFoot -7.102316 -7.996277 4.770450
RightToeBase -0.202424 -0.000000 0.000000
